<svg xmlns="http://www.w3.org/2000/svg" viewBox="0 0 589.22 350.69"><g id="Layer_2" data-name="Layer 2"><g id="Layer_1-2" data-name="Layer 1"><text transform="translate(49.61 285.66)" font-size="100" fill="#bcbec0" font-family="Pixer-Regular, Pixer">vinny_code</text><polygon points="450.94 110.45 450.94 124.45 575.22 124.45 575.22 336.69 14 336.69 14 124.45 153.97 124.45 153.85 110.45 0 110.45 0 350.69 589.22 350.69 589.22 110.45 450.94 110.45" fill="#bcbec0"/><path d="M169.54,0V62.53H138.28V0Zm31.27,156.33H169.54V62.53h31.27Zm0,31.27V156.33h31.27V187.6ZM232.08,62.53h31.26v93.8H232.08ZM263.34,0h31.27V62.53H263.34Z" fill="#bcbec0"/><path d="M357.14,156.33H325.88V31.27h31.26Zm0-125.06V0h93.8V31.27Zm0,156.33V156.33h93.8V187.6Z" fill="#bcbec0"/></g></g></svg>