<svg xmlns="http://www.w3.org/2000/svg" viewBox="0 0 255.93 255.93">
    <g id="twitter">
        <path fill="currentColor" d="M252.8,14.82c-2.73-.06-5.46,0-8.19-.05s-3.36-.76-3.45-3.44,0-5.47,0-8.2A3.65,3.65,0,0,0,239.94,0H16a3.63,3.63,0,0,0-1.18,3.13c-.06,2.73,0,5.46-.05,8.2s-.76,3.36-3.44,3.44-5.47,0-8.2.05A3.63,3.63,0,0,0,0,16V239.94a3.65,3.65,0,0,0,3.13,1.17c2.73.06,5.46,0,8.2,0s3.36.77,3.44,3.45,0,5.46.05,8.19A3.63,3.63,0,0,0,16,255.93H239.94a3.65,3.65,0,0,0,1.17-3.13c.06-2.73,0-5.46,0-8.19s.77-3.36,3.45-3.45,5.46,0,8.19,0a3.65,3.65,0,0,0,3.13-1.17V16A3.63,3.63,0,0,0,252.8,14.82ZM240.35,78.41c0,1.54-.48,2-2,2-3.66-.09-7.33.12-11-.08-2.35-.12-3.14.5-3.09,3,.15,8.83,0,17.66.11,26.49,0,2.1-.6,2.7-2.66,2.61-3.66-.16-7.33,0-11-.08-1.82-.06-2.51.44-2.44,2.36.14,3.83,0,7.66.08,11.49.06,1.8-.58,2.27-2.29,2.22-3.66-.12-7.33.09-11-.09-2.17-.1-2.82.52-2.81,2.76.11,14.08,0,28.16.12,42.23,0,2.62-.74,3.24-3.2,3.1-3.57-.2-7.16,0-10.74-.08-1.61,0-2.19.48-2.15,2.13.1,3.66-.15,7.34.09,11,.16,2.53-.76,3-3.08,3-8.83-.14-17.66,0-26.49-.1-2,0-2.61.55-2.52,2.53.14,3.49-.17,7,.1,10.49.21,2.7-.84,3.09-3.22,3.07-13.91-.1-27.82,0-41.73-.11-2.54,0-3.31.65-3.16,3.18.22,3.57,0,7.16.09,10.74,0,1.58-.37,2.18-2.07,2.17q-22.36-.09-44.73,0c-1.77,0-2-.72-2-2.22.07-3.83-.08-7.67.06-11.49.07-1.93-.64-2.41-2.44-2.36-3.91.12-7.83,0-11.74.06-1.4,0-1.9-.42-1.88-1.85.07-4.24.11-8.49,0-12.74-.05-1.77.54-2.24,2.27-2.23,9,.08,18,0,27,.08,2.13,0,3-.46,2.83-2.74-.19-3.74,0-7.5-.08-11.24,0-1.68.54-2.13,2.14-2.09,3.92.09,7.83,0,11.75.06,1.6,0,2.21-.45,2.16-2.12-.1-3.66-.12-7.33,0-11,.06-1.85-.73-2.21-2.36-2.17-3.83.08-7.66-.07-11.49.06-1.8.06-2.27-.58-2.22-2.28.11-3.83,0-7.67.07-11.5,0-1.72-.47-2.34-2.25-2.29-3.74.12-7.5-.09-11.24.09-2.16.1-2.61-.68-2.58-2.69.1-8.91,0-17.82.09-26.73,0-2.07-.55-2.77-2.65-2.67-3.41.17-6.83,0-10.24,0-3.15,0-3.15,0-3.15-3.28,0-8.74-.06-17.49,0-26.23,0-2-.56-2.61-2.53-2.53-3.58.15-7.17-.08-10.74.09-2.12.1-2.88-.4-2.83-2.71.16-7.24.06-14.49.06-21.74,0-7.41,0-14.82,0-22.23,0-1.6.41-2.2,2.09-2.16,4.24.11,8.49.09,12.74,0,1.52,0,2,.45,2,2-.1,3.57,0,7.16,0,10.74,0,3.29,0,3.29,3.42,3.29,8.75,0,17.49.06,26.24,0,1.88,0,2.44.52,2.37,2.39-.14,3.57.08,7.17-.09,10.74-.1,2.21.48,3,2.86,3,8.91-.15,17.83,0,26.74-.11,2,0,2.55.59,2.48,2.53-.14,3.83,0,7.66-.06,11.49,0,1.48.41,2.09,2,2.05,3.75-.09,7.5-.1,11.24,0,1.73,0,2.09-.69,2.06-2.23-.08-3.91,0-7.83-.06-11.74,0-1.67.54-2.13,2.15-2.09,3.83.1,7.66-.06,11.49.06,1.83.06,2.5-.45,2.43-2.36-.14-3.83,0-7.67-.08-11.49-.06-1.81.6-2.26,2.29-2.21,3.92.11,7.83,0,11.75.06,1.5,0,2.06-.46,2-2-.08-3.91.05-7.83,0-11.74-.05-1.66.33-2.33,2.17-2.32q22.25.11,44.48,0c1.85,0,2.21.68,2.17,2.33-.1,3.82,0,7.66-.07,11.49-.05,1.77.57,2.29,2.29,2.24,3.83-.1,7.67,0,11.49-.06,1.71,0,2.35.41,2.29,2.21-.13,3.83.06,7.67-.08,11.49-.07,1.93.63,2.38,2.44,2.36,9.08-.08,18.16,0,27.23-.07,1.84,0,2.47.45,2.41,2.36C240.22,70.08,240.26,74.25,240.35,78.41Z"/>
    </g>
</svg>