<svg xmlns="http://www.w3.org/2000/svg" viewBox="0 0 256 256">
    <g id="twitch">
        <path fill="currentColor" d="M0,239.5V16.5c4.72,0,9.45-.09,14.17,0,1.72,0,2.33-.58,2.3-2.3-.06-4.72,0-9.45,0-14.17h223q0,6.26.05,12.5c0,3.33,0,3.34-3.42,3.34H31.78V31.93H16v176.3H63.94V240H96.27V224.11h32V208.05h64v-16h16.06v-16h16V160.05h15.93v-51q0-45,0-90c0-2,.53-2.78,2.64-2.71,4.41.15,8.82.07,13.24.09v223c-4.72,0-9.45.09-14.17,0-1.72,0-2.33.58-2.3,2.3.06,4.72,0,9.45,0,14.17H16.5c0-4.72-.09-9.45,0-14.17,0-1.72-.58-2.33-2.3-2.3C9.45,239.59,4.72,239.52,0,239.5Z"/>
        <path fill="currentColor" d="M223.66,143.8H207.94v16H192v16h-80v16H96v16H80.25V175.91H48.31V32.32H223.66ZM112,64v64h16V64Zm48,64h16V64H160Z"/>
    </g>
</svg>